<?xml version="1.0" encoding="utf-8" standalone="no"?>
<!DOCTYPE svg PUBLIC "-//W3C//DTD SVG 1.1//EN"
  "http://www.w3.org/Graphics/SVG/1.1/DTD/svg11.dtd">
<!-- Created with matplotlib (https://matplotlib.org/) -->
<svg height="288pt" version="1.1" viewBox="0 0 576 288" width="576pt" xmlns="http://www.w3.org/2000/svg" xmlns:xlink="http://www.w3.org/1999/xlink">
 <defs>
  <style type="text/css">
*{stroke-linecap:butt;stroke-linejoin:round;}
  </style>
 </defs>
 <g id="figure_1">
  <g id="patch_1">
   <path d="M 0 288 
L 576 288 
L 576 0 
L 0 0 
z
" style="fill:#ffffff;"/>
  </g>
  <g id="axes_1">
   <g id="patch_2">
    <path d="M 177.7 246.04 
L 398.3 246.04 
L 398.3 25.44 
L 177.7 25.44 
z
" style="fill:#ffffff;"/>
   </g>
   <g id="patch_3">
    <path clip-path="url(#p5bcd156e90)" d="M 187.727273 246.04 
L 187.727273 246.04 
L 198.282297 246.04 
L 198.282297 246.04 
L 208.837321 246.04 
L 208.837321 246.04 
L 219.392344 246.04 
L 219.392344 246.04 
L 229.947368 246.04 
L 229.947368 246.04 
L 240.502392 246.04 
L 240.502392 246.04 
L 251.057416 246.04 
L 251.057416 245.716777 
L 261.61244 245.716777 
L 261.61244 242.807766 
L 272.167464 242.807766 
L 272.167464 237.63619 
L 282.722488 237.63619 
L 282.722488 241.514872 
L 293.277512 241.514872 
L 293.277512 226.000147 
L 303.832536 226.000147 
L 303.832536 195.617143 
L 314.38756 195.617143 
L 314.38756 130.326007 
L 324.942584 130.326007 
L 324.942584 65.681319 
L 335.497608 65.681319 
L 335.497608 89.27663 
L 346.052632 89.27663 
L 346.052632 143.254945 
L 356.607656 143.254945 
L 356.607656 210.808645 
L 367.162679 210.808645 
L 367.162679 239.898755 
L 377.717703 239.898755 
L 377.717703 242.807766 
L 388.272727 242.807766 
L 388.272727 246.04 
" style="fill:none;stroke:#000000;stroke-linejoin:miter;stroke-width:2;"/>
   </g>
   <g id="patch_4">
    <path clip-path="url(#p5bcd156e90)" d="M 187.727273 246.04 
L 187.727273 246.04 
L 198.282297 246.04 
L 198.282297 246.04 
L 208.837321 246.04 
L 208.837321 246.04 
L 219.392344 246.04 
L 219.392344 246.04 
L 229.947368 246.04 
L 229.947368 246.04 
L 240.502392 246.04 
L 240.502392 246.04 
L 251.057416 246.04 
L 251.057416 246.04 
L 261.61244 246.04 
L 261.61244 246.04 
L 272.167464 246.04 
L 272.167464 246.04 
L 282.722488 246.04 
L 282.722488 245.393553 
L 293.277512 245.393553 
L 293.277512 218.242784 
L 303.832536 218.242784 
L 303.832536 177.839853 
L 314.38756 177.839853 
L 314.38756 107.700366 
L 324.942584 107.700366 
L 324.942584 106.407473 
L 335.497608 106.407473 
L 335.497608 124.507985 
L 346.052632 124.507985 
L 346.052632 140.992381 
L 356.607656 140.992381 
L 356.607656 222.121465 
L 367.162679 222.121465 
L 367.162679 225.3537 
L 377.717703 225.3537 
L 377.717703 236.343297 
L 388.272727 236.343297 
L 388.272727 246.04 
" style="fill:none;stroke:#808080;stroke-linejoin:miter;stroke-width:2;"/>
   </g>
   <g id="patch_5">
    <path clip-path="url(#p5bcd156e90)" d="M 187.727273 246.04 
L 187.727273 151.012308 
L 198.282297 151.012308 
L 198.282297 35.944762 
L 208.837321 35.944762 
L 208.837321 105.761026 
L 219.392344 105.761026 
L 219.392344 208.222857 
L 229.947368 208.222857 
L 229.947368 202.404835 
L 240.502392 202.404835 
L 240.502392 190.768791 
L 251.057416 190.768791 
L 251.057416 212.101538 
L 261.61244 212.101538 
L 261.61244 212.747985 
L 272.167464 212.747985 
L 272.167464 219.535678 
L 282.722488 219.535678 
L 282.722488 227.29304 
L 293.277512 227.29304 
L 293.277512 237.959414 
L 303.832536 237.959414 
L 303.832536 245.716777 
L 314.38756 245.716777 
L 314.38756 246.04 
L 324.942584 246.04 
L 324.942584 246.04 
L 335.497608 246.04 
L 335.497608 246.04 
L 346.052632 246.04 
L 346.052632 246.04 
L 356.607656 246.04 
L 356.607656 246.04 
L 367.162679 246.04 
L 367.162679 246.04 
L 377.717703 246.04 
L 377.717703 246.04 
L 388.272727 246.04 
L 388.272727 246.04 
" style="fill:none;stroke:#808080;stroke-dasharray:7.4,3.2;stroke-dashoffset:0;stroke-linejoin:miter;stroke-width:2;"/>
   </g>
   <g id="matplotlib.axis_1">
    <g id="xtick_1">
     <g id="line2d_1">
      <defs>
       <path d="M 0 0 
L 0 3.5 
" id="md46ff930a7" style="stroke:#000000;stroke-width:0.8;"/>
      </defs>
      <g>
       <use style="stroke:#000000;stroke-width:0.8;" x="190.249013" xlink:href="#md46ff930a7" y="246.04"/>
      </g>
     </g>
     <g id="text_1">
      <text style="font-family:DejaVu Sans;font-size:10px;font-style:normal;font-weight:normal;text-anchor:middle;" transform="rotate(-0, 190.249013, 260.638438)" x="190.249013" y="260.638438">20</text>
     </g>
    </g>
    <g id="xtick_2">
     <g id="line2d_2">
      <g>
       <use style="stroke:#000000;stroke-width:0.8;" x="238.015032" xlink:href="#md46ff930a7" y="246.04"/>
      </g>
     </g>
     <g id="text_2">
      <text style="font-family:DejaVu Sans;font-size:10px;font-style:normal;font-weight:normal;text-anchor:middle;" transform="rotate(-0, 238.015032, 260.638438)" x="238.015032" y="260.638438">40</text>
     </g>
    </g>
    <g id="xtick_3">
     <g id="line2d_3">
      <g>
       <use style="stroke:#000000;stroke-width:0.8;" x="285.78105" xlink:href="#md46ff930a7" y="246.04"/>
      </g>
     </g>
     <g id="text_3">
      <text style="font-family:DejaVu Sans;font-size:10px;font-style:normal;font-weight:normal;text-anchor:middle;" transform="rotate(-0, 285.78105, 260.638438)" x="285.78105" y="260.638438">60</text>
     </g>
    </g>
    <g id="xtick_4">
     <g id="line2d_4">
      <g>
       <use style="stroke:#000000;stroke-width:0.8;" x="333.547069" xlink:href="#md46ff930a7" y="246.04"/>
      </g>
     </g>
     <g id="text_4">
      <text style="font-family:DejaVu Sans;font-size:10px;font-style:normal;font-weight:normal;text-anchor:middle;" transform="rotate(-0, 333.547069, 260.638438)" x="333.547069" y="260.638438">80</text>
     </g>
    </g>
    <g id="xtick_5">
     <g id="line2d_5">
      <g>
       <use style="stroke:#000000;stroke-width:0.8;" x="381.313088" xlink:href="#md46ff930a7" y="246.04"/>
      </g>
     </g>
     <g id="text_5">
      <text style="font-family:DejaVu Sans;font-size:10px;font-style:normal;font-weight:normal;text-anchor:middle;" transform="rotate(-0, 381.313088, 260.638438)" x="381.313088" y="260.638438">100</text>
     </g>
    </g>
    <g id="text_6">
     <text style="font-family:DejaVu Sans;font-size:10px;font-style:normal;font-weight:normal;text-anchor:middle;" transform="rotate(-0, 288, 274.316562)" x="288" y="274.316562">Pupil Size</text>
    </g>
   </g>
   <g id="matplotlib.axis_2">
    <g id="ytick_1">
     <g id="line2d_6">
      <defs>
       <path d="M 0 0 
L -3.5 0 
" id="mac898f55e3" style="stroke:#000000;stroke-width:0.8;"/>
      </defs>
      <g>
       <use style="stroke:#000000;stroke-width:0.8;" x="177.7" xlink:href="#mac898f55e3" y="246.04"/>
      </g>
     </g>
     <g id="text_7">
      <text style="font-family:DejaVu Sans;font-size:10px;font-style:normal;font-weight:normal;text-anchor:end;" transform="rotate(-0, 170.7, 249.839219)" x="170.7" y="249.839219">0</text>
     </g>
    </g>
    <g id="ytick_2">
     <g id="line2d_7">
      <g>
       <use style="stroke:#000000;stroke-width:0.8;" x="177.7" xlink:href="#mac898f55e3" y="213.717656"/>
      </g>
     </g>
     <g id="text_8">
      <text style="font-family:DejaVu Sans;font-size:10px;font-style:normal;font-weight:normal;text-anchor:end;" transform="rotate(-0, 170.7, 217.516874)" x="170.7" y="217.516874">100</text>
     </g>
    </g>
    <g id="ytick_3">
     <g id="line2d_8">
      <g>
       <use style="stroke:#000000;stroke-width:0.8;" x="177.7" xlink:href="#mac898f55e3" y="181.395311"/>
      </g>
     </g>
     <g id="text_9">
      <text style="font-family:DejaVu Sans;font-size:10px;font-style:normal;font-weight:normal;text-anchor:end;" transform="rotate(-0, 170.7, 185.19453)" x="170.7" y="185.19453">200</text>
     </g>
    </g>
    <g id="ytick_4">
     <g id="line2d_9">
      <g>
       <use style="stroke:#000000;stroke-width:0.8;" x="177.7" xlink:href="#mac898f55e3" y="149.072967"/>
      </g>
     </g>
     <g id="text_10">
      <text style="font-family:DejaVu Sans;font-size:10px;font-style:normal;font-weight:normal;text-anchor:end;" transform="rotate(-0, 170.7, 152.872186)" x="170.7" y="152.872186">300</text>
     </g>
    </g>
    <g id="ytick_5">
     <g id="line2d_10">
      <g>
       <use style="stroke:#000000;stroke-width:0.8;" x="177.7" xlink:href="#mac898f55e3" y="116.750623"/>
      </g>
     </g>
     <g id="text_11">
      <text style="font-family:DejaVu Sans;font-size:10px;font-style:normal;font-weight:normal;text-anchor:end;" transform="rotate(-0, 170.7, 120.549841)" x="170.7" y="120.549841">400</text>
     </g>
    </g>
    <g id="ytick_6">
     <g id="line2d_11">
      <g>
       <use style="stroke:#000000;stroke-width:0.8;" x="177.7" xlink:href="#mac898f55e3" y="84.428278"/>
      </g>
     </g>
     <g id="text_12">
      <text style="font-family:DejaVu Sans;font-size:10px;font-style:normal;font-weight:normal;text-anchor:end;" transform="rotate(-0, 170.7, 88.227497)" x="170.7" y="88.227497">500</text>
     </g>
    </g>
    <g id="ytick_7">
     <g id="line2d_12">
      <g>
       <use style="stroke:#000000;stroke-width:0.8;" x="177.7" xlink:href="#mac898f55e3" y="52.105934"/>
      </g>
     </g>
     <g id="text_13">
      <text style="font-family:DejaVu Sans;font-size:10px;font-style:normal;font-weight:normal;text-anchor:end;" transform="rotate(-0, 170.7, 55.905153)" x="170.7" y="55.905153">600</text>
     </g>
    </g>
    <g id="text_14">
     <text style="font-family:DejaVu Sans;font-size:10px;font-style:normal;font-weight:normal;text-anchor:middle;" transform="rotate(-90, 145.532812, 135.74)" x="145.532812" y="135.74">Frequency</text>
    </g>
   </g>
   <g id="patch_6">
    <path d="M 177.7 246.04 
L 177.7 25.44 
" style="fill:none;stroke:#000000;stroke-linecap:square;stroke-linejoin:miter;stroke-width:0.8;"/>
   </g>
   <g id="patch_7">
    <path d="M 398.3 246.04 
L 398.3 25.44 
" style="fill:none;stroke:#000000;stroke-linecap:square;stroke-linejoin:miter;stroke-width:0.8;"/>
   </g>
   <g id="patch_8">
    <path d="M 177.7 246.04 
L 398.3 246.04 
" style="fill:none;stroke:#000000;stroke-linecap:square;stroke-linejoin:miter;stroke-width:0.8;"/>
   </g>
   <g id="patch_9">
    <path d="M 177.7 25.44 
L 398.3 25.44 
" style="fill:none;stroke:#000000;stroke-linecap:square;stroke-linejoin:miter;stroke-width:0.8;"/>
   </g>
   <g id="text_15">
    <text style="font-family:DejaVu Sans;font-size:12px;font-style:normal;font-weight:normal;text-anchor:middle;" transform="rotate(-0, 288, 19.44)" x="288" y="19.44">AMT026a</text>
   </g>
   <g id="legend_1">
    <g id="patch_10">
     <path d="M 245.628125 42.038438 
L 265.628125 42.038438 
L 265.628125 35.038438 
L 245.628125 35.038438 
z
" style="fill:none;stroke:#000000;stroke-linejoin:miter;stroke-width:2;"/>
    </g>
    <g id="text_16">
     <text style="font-family:DejaVu Sans;font-size:10px;font-style:normal;font-weight:normal;text-anchor:start;" transform="rotate(-0, 273.628125, 42.038438)" x="273.628125" y="42.038438">Active</text>
    </g>
    <g id="patch_11">
     <path d="M 245.628125 56.716563 
L 265.628125 56.716563 
L 265.628125 49.716563 
L 245.628125 49.716563 
z
" style="fill:none;stroke:#808080;stroke-linejoin:miter;stroke-width:2;"/>
    </g>
    <g id="text_17">
     <text style="font-family:DejaVu Sans;font-size:10px;font-style:normal;font-weight:normal;text-anchor:start;" transform="rotate(-0, 273.628125, 56.716563)" x="273.628125" y="56.716563">Passive, pupil matched</text>
    </g>
    <g id="patch_12">
     <path d="M 245.628125 71.394688 
L 265.628125 71.394688 
L 265.628125 64.394688 
L 245.628125 64.394688 
z
" style="fill:none;stroke:#808080;stroke-dasharray:7.4,3.2;stroke-dashoffset:0;stroke-linejoin:miter;stroke-width:2;"/>
    </g>
    <g id="text_18">
     <text style="font-family:DejaVu Sans;font-size:10px;font-style:normal;font-weight:normal;text-anchor:start;" transform="rotate(-0, 273.628125, 71.394688)" x="273.628125" y="71.394688">Passive, small pupil</text>
    </g>
   </g>
  </g>
 </g>
 <defs>
  <clipPath id="p5bcd156e90">
   <rect height="220.6" width="220.6" x="177.7" y="25.44"/>
  </clipPath>
 </defs>
</svg>
