<?xml version="1.0" encoding="utf-8" standalone="no"?>
<!DOCTYPE svg PUBLIC "-//W3C//DTD SVG 1.1//EN"
  "http://www.w3.org/Graphics/SVG/1.1/DTD/svg11.dtd">
<!-- Created with matplotlib (https://matplotlib.org/) -->
<svg height="432pt" version="1.1" viewBox="0 0 432 432" width="432pt" xmlns="http://www.w3.org/2000/svg" xmlns:xlink="http://www.w3.org/1999/xlink">
 <defs>
  <style type="text/css">
*{stroke-linecap:butt;stroke-linejoin:round;}
  </style>
 </defs>
 <g id="figure_1">
  <g id="patch_1">
   <path d="M 0 432 
L 432 432 
L 432 0 
L 0 0 
z
" style="fill:#ffffff;"/>
  </g>
  <g id="axes_1">
   <g id="patch_2">
    <path d="M 53.3 182.32 
L 223.73 182.32 
L 223.73 25.44 
L 53.3 25.44 
z
" style="fill:#ffffff;"/>
   </g>
   <g id="PolyCollection_1">
    <defs>
     <path d="M 61.046818 -284.071052 
L 61.046818 -279.875774 
L 66.58026 -281.487618 
L 72.113701 -281.844491 
L 77.647143 -282.824729 
L 83.180584 -285.776678 
L 88.714026 -284.215515 
L 94.247468 -286.159455 
L 99.780909 -344.673407 
L 105.314351 -333.976884 
L 110.847792 -335.09919 
L 116.381234 -335.878765 
L 121.914675 -332.734053 
L 127.448117 -330.592239 
L 132.981558 -322.590972 
L 138.515 -322.210017 
L 144.048442 -316.002014 
L 149.581883 -317.532255 
L 155.115325 -317.83917 
L 160.648766 -320.469808 
L 166.182208 -316.954293 
L 171.715649 -315.43546 
L 177.249091 -313.776447 
L 182.782532 -297.051829 
L 188.315974 -281.528643 
L 193.849416 -294.660585 
L 199.382857 -293.456829 
L 204.916299 -297.436875 
L 210.44974 -296.134769 
L 215.983182 -297.563603 
L 215.983182 -308.285364 
L 215.983182 -308.285364 
L 210.44974 -305.99373 
L 204.916299 -307.285523 
L 199.382857 -302.594758 
L 193.849416 -302.935084 
L 188.315974 -291.140722 
L 182.782532 -309.693736 
L 177.249091 -329.087954 
L 171.715649 -331.493476 
L 166.182208 -332.261336 
L 160.648766 -335.975548 
L 155.115325 -333.03415 
L 149.581883 -333.10915 
L 144.048442 -331.421068 
L 138.515 -338.087609 
L 132.981558 -338.93363 
L 127.448117 -346.930713 
L 121.914675 -349.077199 
L 116.381234 -352.036853 
L 110.847792 -351.268732 
L 105.314351 -349.013455 
L 99.780909 -359.013234 
L 94.247468 -290.76514 
L 88.714026 -288.879635 
L 83.180584 -290.320436 
L 77.647143 -288.206356 
L 72.113701 -285.663078 
L 66.58026 -286.367172 
L 61.046818 -284.071052 
z
" id="m1d5eeee726"/>
    </defs>
    <g clip-path="url(#pc9cc9442fd)">
     <use style="fill:#ff0000;fill-opacity:0.5;" x="0" xlink:href="#m1d5eeee726" y="432"/>
    </g>
   </g>
   <g id="PolyCollection_2">
    <defs>
     <path d="M 61.046818 -284.044975 
L 61.046818 -276.800007 
L 66.58026 -287.964746 
L 72.113701 -280.967496 
L 77.647143 -281.705535 
L 83.180584 -280.221033 
L 88.714026 -283.21263 
L 94.247468 -288.187677 
L 99.780909 -349.835472 
L 105.314351 -343.049405 
L 110.847792 -335.68691 
L 116.381234 -333.645492 
L 121.914675 -328.38096 
L 127.448117 -327.69206 
L 132.981558 -324.765387 
L 138.515 -324.573005 
L 144.048442 -321.085253 
L 149.581883 -320.08424 
L 155.115325 -319.388498 
L 160.648766 -320.408915 
L 166.182208 -319.77423 
L 171.715649 -316.1612 
L 177.249091 -318.878815 
L 182.782532 -296.379784 
L 188.315974 -263.959867 
L 193.849416 -265.542313 
L 199.382857 -259.248683 
L 204.916299 -271.738232 
L 210.44974 -265.052603 
L 215.983182 -267.930733 
L 215.983182 -284.333001 
L 215.983182 -284.333001 
L 210.44974 -283.681374 
L 204.916299 -289.183606 
L 199.382857 -280.213229 
L 193.849416 -288.578269 
L 188.315974 -286.08805 
L 182.782532 -313.331056 
L 177.249091 -361.111392 
L 171.715649 -356.546091 
L 166.182208 -361.949877 
L 160.648766 -363.293851 
L 155.115325 -361.723237 
L 149.581883 -365.785732 
L 144.048442 -363.626438 
L 138.515 -367.14471 
L 132.981558 -369.780243 
L 127.448117 -374.423815 
L 121.914675 -372.711517 
L 116.381234 -380.750263 
L 110.847792 -389.088026 
L 105.314351 -399.429091 
L 99.780909 -372.835255 
L 94.247468 -292.748345 
L 88.714026 -289.912455 
L 83.180584 -284.679179 
L 77.647143 -286.088798 
L 72.113701 -285.307946 
L 66.58026 -294.616305 
L 61.046818 -284.044975 
z
" id="m3bb66fe01c"/>
    </defs>
    <g clip-path="url(#pc9cc9442fd)">
     <use style="fill:#ff7f50;fill-opacity:0.5;" x="0" xlink:href="#m3bb66fe01c" y="432"/>
    </g>
   </g>
   <g id="PolyCollection_3">
    <defs>
     <path d="M 61.046818 -286.764527 
L 61.046818 -282.897168 
L 66.58026 -283.462149 
L 72.113701 -286.224633 
L 77.647143 -283.883618 
L 83.180584 -285.494473 
L 88.714026 -280.919233 
L 94.247468 -278.197197 
L 99.780909 -333.89623 
L 105.314351 -324.024433 
L 110.847792 -320.287768 
L 116.381234 -312.280552 
L 121.914675 -311.780001 
L 127.448117 -307.720642 
L 132.981558 -302.202341 
L 138.515 -309.954521 
L 144.048442 -304.409656 
L 149.581883 -308.491128 
L 155.115325 -302.384179 
L 160.648766 -307.952625 
L 166.182208 -308.304442 
L 171.715649 -305.236712 
L 177.249091 -308.568312 
L 182.782532 -288.993811 
L 188.315974 -256.810909 
L 193.849416 -263.118504 
L 199.382857 -263.499022 
L 204.916299 -269.373516 
L 210.44974 -269.848727 
L 215.983182 -272.91243 
L 215.983182 -283.89937 
L 215.983182 -283.89937 
L 210.44974 -282.953167 
L 204.916299 -283.246157 
L 199.382857 -278.538732 
L 193.849416 -276.246688 
L 188.315974 -276.594535 
L 182.782532 -305.51093 
L 177.249091 -337.163841 
L 171.715649 -338.458049 
L 166.182208 -342.006834 
L 160.648766 -341.32895 
L 155.115325 -338.361883 
L 149.581883 -341.477371 
L 144.048442 -339.636423 
L 138.515 -342.231819 
L 132.981558 -339.897305 
L 127.448117 -343.957523 
L 121.914675 -353.199816 
L 116.381234 -355.705694 
L 110.847792 -360.480704 
L 105.314351 -356.883725 
L 99.780909 -349.616792 
L 94.247468 -283.457491 
L 88.714026 -284.969691 
L 83.180584 -289.589221 
L 77.647143 -290.26143 
L 72.113701 -290.536807 
L 66.58026 -289.799491 
L 61.046818 -286.764527 
z
" id="mc827fc5370"/>
    </defs>
    <g clip-path="url(#pc9cc9442fd)">
     <use style="fill:#ffe4c4;fill-opacity:0.5;" x="0" xlink:href="#mc827fc5370" y="432"/>
    </g>
   </g>
   <g id="matplotlib.axis_1">
    <g id="xtick_1">
     <g id="line2d_1">
      <defs>
       <path d="M 0 0 
L 0 3.5 
" id="m4ce44d5675" style="stroke:#000000;stroke-width:0.8;"/>
      </defs>
      <g>
       <use style="stroke:#000000;stroke-width:0.8;" x="99.780909" xlink:href="#m4ce44d5675" y="182.32"/>
      </g>
     </g>
     <g id="text_1">
      <text style="font-family:DejaVu Sans;font-size:10px;font-style:normal;font-weight:normal;text-anchor:middle;" transform="rotate(-0, 99.780909, 196.918437)" x="99.780909" y="196.918437">0</text>
     </g>
    </g>
    <g id="xtick_2">
     <g id="line2d_2">
      <g>
       <use style="stroke:#000000;stroke-width:0.8;" x="155.115325" xlink:href="#m4ce44d5675" y="182.32"/>
      </g>
     </g>
     <g id="text_2">
      <text style="font-family:DejaVu Sans;font-size:10px;font-style:normal;font-weight:normal;text-anchor:middle;" transform="rotate(-0, 155.115325, 196.918437)" x="155.115325" y="196.918437">10</text>
     </g>
    </g>
    <g id="xtick_3">
     <g id="line2d_3">
      <g>
       <use style="stroke:#000000;stroke-width:0.8;" x="210.44974" xlink:href="#m4ce44d5675" y="182.32"/>
      </g>
     </g>
     <g id="text_3">
      <text style="font-family:DejaVu Sans;font-size:10px;font-style:normal;font-weight:normal;text-anchor:middle;" transform="rotate(-0, 210.44974, 196.918437)" x="210.44974" y="196.918437">20</text>
     </g>
    </g>
    <g id="text_4">
     <text style="font-family:DejaVu Sans;font-size:8px;font-style:normal;font-weight:normal;text-anchor:middle;" transform="rotate(-0, 138.515, 209.076875)" x="138.515" y="209.076875">Time from sound onset</text>
    </g>
   </g>
   <g id="matplotlib.axis_2">
    <g id="ytick_1">
     <g id="line2d_4">
      <defs>
       <path d="M 0 0 
L -3.5 0 
" id="ma6728f3823" style="stroke:#000000;stroke-width:0.8;"/>
      </defs>
      <g>
       <use style="stroke:#000000;stroke-width:0.8;" x="53.3" xlink:href="#ma6728f3823" y="169.867465"/>
      </g>
     </g>
     <g id="text_5">
      <text style="font-family:DejaVu Sans;font-size:10px;font-style:normal;font-weight:normal;text-anchor:end;" transform="rotate(-0, 46.3, 173.666683)" x="46.3" y="173.666683">−0.2</text>
     </g>
    </g>
    <g id="ytick_2">
     <g id="line2d_5">
      <g>
       <use style="stroke:#000000;stroke-width:0.8;" x="53.3" xlink:href="#ma6728f3823" y="146.538777"/>
      </g>
     </g>
     <g id="text_6">
      <text style="font-family:DejaVu Sans;font-size:10px;font-style:normal;font-weight:normal;text-anchor:end;" transform="rotate(-0, 46.3, 150.337995)" x="46.3" y="150.337995">0.0</text>
     </g>
    </g>
    <g id="ytick_3">
     <g id="line2d_6">
      <g>
       <use style="stroke:#000000;stroke-width:0.8;" x="53.3" xlink:href="#ma6728f3823" y="123.210088"/>
      </g>
     </g>
     <g id="text_7">
      <text style="font-family:DejaVu Sans;font-size:10px;font-style:normal;font-weight:normal;text-anchor:end;" transform="rotate(-0, 46.3, 127.009307)" x="46.3" y="127.009307">0.2</text>
     </g>
    </g>
    <g id="ytick_4">
     <g id="line2d_7">
      <g>
       <use style="stroke:#000000;stroke-width:0.8;" x="53.3" xlink:href="#ma6728f3823" y="99.8814"/>
      </g>
     </g>
     <g id="text_8">
      <text style="font-family:DejaVu Sans;font-size:10px;font-style:normal;font-weight:normal;text-anchor:end;" transform="rotate(-0, 46.3, 103.680619)" x="46.3" y="103.680619">0.4</text>
     </g>
    </g>
    <g id="ytick_5">
     <g id="line2d_8">
      <g>
       <use style="stroke:#000000;stroke-width:0.8;" x="53.3" xlink:href="#ma6728f3823" y="76.552712"/>
      </g>
     </g>
     <g id="text_9">
      <text style="font-family:DejaVu Sans;font-size:10px;font-style:normal;font-weight:normal;text-anchor:end;" transform="rotate(-0, 46.3, 80.351931)" x="46.3" y="80.351931">0.6</text>
     </g>
    </g>
    <g id="ytick_6">
     <g id="line2d_9">
      <g>
       <use style="stroke:#000000;stroke-width:0.8;" x="53.3" xlink:href="#ma6728f3823" y="53.224024"/>
      </g>
     </g>
     <g id="text_10">
      <text style="font-family:DejaVu Sans;font-size:10px;font-style:normal;font-weight:normal;text-anchor:end;" transform="rotate(-0, 46.3, 57.023242)" x="46.3" y="57.023242">0.8</text>
     </g>
    </g>
    <g id="ytick_7">
     <g id="line2d_10">
      <g>
       <use style="stroke:#000000;stroke-width:0.8;" x="53.3" xlink:href="#ma6728f3823" y="29.895336"/>
      </g>
     </g>
     <g id="text_11">
      <text style="font-family:DejaVu Sans;font-size:10px;font-style:normal;font-weight:normal;text-anchor:end;" transform="rotate(-0, 46.3, 33.694554)" x="46.3" y="33.694554">1.0</text>
     </g>
    </g>
   </g>
   <g id="line2d_11">
    <path clip-path="url(#pc9cc9442fd)" d="M 61.046818 150.026587 
L 66.58026 148.072605 
L 72.113701 148.246216 
L 77.647143 146.484457 
L 83.180584 143.951443 
L 88.714026 145.452425 
L 94.247468 143.537703 
L 99.780909 80.156679 
L 105.314351 90.504831 
L 110.847792 88.816039 
L 116.381234 88.042191 
L 121.914675 91.094374 
L 127.448117 93.238524 
L 132.981558 101.237699 
L 138.515 101.851187 
L 144.048442 108.288459 
L 149.581883 106.679298 
L 155.115325 106.56334 
L 160.648766 103.777322 
L 166.182208 107.392185 
L 171.715649 108.535532 
L 177.249091 110.5678 
L 182.782532 128.627217 
L 188.315974 145.665318 
L 193.849416 133.202165 
L 199.382857 133.974206 
L 204.916299 129.638801 
L 210.44974 130.935751 
L 215.983182 129.075516 
" style="fill:none;stroke:#ff0000;stroke-linecap:square;stroke-width:2;"/>
   </g>
   <g id="line2d_12">
    <path clip-path="url(#pc9cc9442fd)" d="M 61.046818 151.577509 
L 66.58026 140.709474 
L 72.113701 148.862279 
L 77.647143 148.102833 
L 83.180584 149.549894 
L 88.714026 145.437457 
L 94.247468 141.531989 
L 99.780909 70.664636 
L 105.314351 60.760752 
L 110.847792 69.612532 
L 116.381234 74.802123 
L 121.914675 81.453762 
L 127.448117 80.942062 
L 132.981558 84.727185 
L 138.515 86.141142 
L 144.048442 89.644155 
L 149.581883 89.065014 
L 155.115325 91.444133 
L 160.648766 90.148617 
L 166.182208 91.137946 
L 171.715649 95.646354 
L 177.249091 92.004896 
L 182.782532 127.14458 
L 188.315974 156.976042 
L 193.849416 154.939709 
L 199.382857 162.269044 
L 204.916299 151.539081 
L 210.44974 157.633011 
L 215.983182 155.868133 
" style="fill:none;stroke:#ff0000;stroke-dasharray:7.4,3.2;stroke-dashoffset:0;stroke-width:2;"/>
   </g>
   <g id="line2d_13">
    <path clip-path="url(#pc9cc9442fd)" d="M 61.046818 147.169152 
L 66.58026 145.36918 
L 72.113701 143.61928 
L 77.647143 144.927476 
L 83.180584 144.458153 
L 88.714026 149.055538 
L 94.247468 151.172656 
L 99.780909 90.243489 
L 105.314351 91.545921 
L 110.847792 91.615764 
L 116.381234 98.006877 
L 121.914675 99.510091 
L 127.448117 106.160918 
L 132.981558 110.950177 
L 138.515 105.90683 
L 144.048442 109.976961 
L 149.581883 107.01575 
L 155.115325 111.626969 
L 160.648766 107.359213 
L 166.182208 106.844362 
L 171.715649 110.152619 
L 177.249091 109.133923 
L 182.782532 134.747629 
L 188.315974 165.297278 
L 193.849416 162.317404 
L 199.382857 160.981123 
L 204.916299 155.690163 
L 210.44974 155.599053 
L 215.983182 153.5941 
" style="fill:none;stroke:#ff8c00;stroke-dasharray:2,3.3;stroke-dashoffset:0;stroke-width:2;"/>
   </g>
   <g id="patch_3">
    <path d="M 53.3 182.32 
L 53.3 25.44 
" style="fill:none;stroke:#000000;stroke-linecap:square;stroke-linejoin:miter;stroke-width:0.8;"/>
   </g>
   <g id="patch_4">
    <path d="M 223.73 182.32 
L 223.73 25.44 
" style="fill:none;stroke:#000000;stroke-linecap:square;stroke-linejoin:miter;stroke-width:0.8;"/>
   </g>
   <g id="patch_5">
    <path d="M 53.3 182.32 
L 223.73 182.32 
" style="fill:none;stroke:#000000;stroke-linecap:square;stroke-linejoin:miter;stroke-width:0.8;"/>
   </g>
   <g id="patch_6">
    <path d="M 53.3 25.44 
L 223.73 25.44 
" style="fill:none;stroke:#000000;stroke-linecap:square;stroke-linejoin:miter;stroke-width:0.8;"/>
   </g>
   <g id="text_12">
    <text style="font-family:DejaVu Sans;font-size:12px;font-style:normal;font-weight:normal;text-anchor:middle;" transform="rotate(-0, 138.515, 19.44)" x="138.515" y="19.44">Target</text>
   </g>
   <g id="legend_1">
    <g id="line2d_14">
     <path d="M 115.32625 35.91875 
L 131.32625 35.91875 
" style="fill:none;stroke:#ff0000;stroke-linecap:square;stroke-width:2;"/>
    </g>
    <g id="line2d_15"/>
    <g id="text_13">
     <text style="font-family:DejaVu Sans;font-size:8px;font-style:normal;font-weight:normal;text-anchor:start;" transform="rotate(-0, 137.72625, 38.71875)" x="137.72625" y="38.71875">active</text>
    </g>
    <g id="line2d_16">
     <path d="M 115.32625 47.66125 
L 131.32625 47.66125 
" style="fill:none;stroke:#ff0000;stroke-dasharray:7.4,3.2;stroke-dashoffset:0;stroke-width:2;"/>
    </g>
    <g id="line2d_17"/>
    <g id="text_14">
     <text style="font-family:DejaVu Sans;font-size:8px;font-style:normal;font-weight:normal;text-anchor:start;" transform="rotate(-0, 137.72625, 50.46125)" x="137.72625" y="50.46125">passive, big pupil</text>
    </g>
    <g id="line2d_18">
     <path d="M 115.32625 59.40375 
L 131.32625 59.40375 
" style="fill:none;stroke:#ff8c00;stroke-dasharray:2,3.3;stroke-dashoffset:0;stroke-width:2;"/>
    </g>
    <g id="line2d_19"/>
    <g id="text_15">
     <text style="font-family:DejaVu Sans;font-size:8px;font-style:normal;font-weight:normal;text-anchor:start;" transform="rotate(-0, 137.72625, 62.20375)" x="137.72625" y="62.20375">passive, small pupil</text>
    </g>
   </g>
  </g>
  <g id="axes_2">
   <g id="patch_7">
    <path d="M 248.25 182.32 
L 418.68 182.32 
L 418.68 25.44 
L 248.25 25.44 
z
" style="fill:#ffffff;"/>
   </g>
   <g id="PolyCollection_4">
    <defs>
     <path d="M 255.996818 -288.256686 
L 255.996818 -283.106804 
L 261.53026 -280.844346 
L 267.063701 -283.877879 
L 272.597143 -282.778674 
L 278.130584 -286.899017 
L 283.664026 -278.886367 
L 289.197468 -284.248326 
L 294.730909 -313.255292 
L 300.264351 -307.315024 
L 305.797792 -300.35791 
L 311.331234 -301.455552 
L 316.864675 -305.140952 
L 322.398117 -306.094371 
L 327.931558 -309.538679 
L 333.465 -313.870445 
L 338.998442 -312.245705 
L 344.531883 -318.706674 
L 350.065325 -317.618523 
L 355.598766 -318.456686 
L 361.132208 -320.441165 
L 366.665649 -319.894277 
L 372.199091 -321.796466 
L 377.732532 -321.565185 
L 383.265974 -324.544686 
L 388.799416 -331.43639 
L 394.332857 -327.157952 
L 399.866299 -334.026798 
L 405.39974 -331.57943 
L 410.933182 -333.956713 
L 410.933182 -344.237405 
L 410.933182 -344.237405 
L 405.39974 -341.782195 
L 399.866299 -344.233057 
L 394.332857 -337.084275 
L 388.799416 -341.586507 
L 383.265974 -336.201649 
L 377.732532 -333.206596 
L 372.199091 -333.261255 
L 366.665649 -331.861923 
L 361.132208 -331.962195 
L 355.598766 -330.017343 
L 350.065325 -329.114716 
L 344.531883 -330.118483 
L 338.998442 -323.921271 
L 333.465 -324.982892 
L 327.931558 -321.285451 
L 322.398117 -317.665306 
L 316.864675 -316.604757 
L 311.331234 -312.999658 
L 305.797792 -312.385103 
L 300.264351 -319.7558 
L 294.730909 -323.843558 
L 289.197468 -289.473547 
L 283.664026 -283.883064 
L 278.130584 -291.509256 
L 272.597143 -288.814383 
L 267.063701 -287.714759 
L 261.53026 -286.16402 
L 255.996818 -288.256686 
z
" id="m38bca8c9dd"/>
    </defs>
    <g clip-path="url(#p4577fcf681)">
     <use style="fill:#ff0000;fill-opacity:0.5;" x="0" xlink:href="#m38bca8c9dd" y="432"/>
    </g>
   </g>
   <g id="PolyCollection_5">
    <defs>
     <path d="M 255.996818 -293.216925 
L 255.996818 -284.521785 
L 261.53026 -272.966002 
L 267.063701 -285.043055 
L 272.597143 -280.677114 
L 278.130584 -285.8257 
L 283.664026 -282.693661 
L 289.197468 -280.176441 
L 294.730909 -305.612307 
L 300.264351 -297.881812 
L 305.797792 -301.491826 
L 311.331234 -297.151571 
L 316.864675 -295.09023 
L 322.398117 -297.910502 
L 327.931558 -300.776904 
L 333.465 -293.079834 
L 338.998442 -293.964515 
L 344.531883 -294.577614 
L 350.065325 -290.586815 
L 355.598766 -296.452297 
L 361.132208 -293.269679 
L 366.665649 -289.576448 
L 372.199091 -294.013642 
L 377.732532 -306.206374 
L 383.265974 -280.941846 
L 388.799416 -274.488147 
L 394.332857 -279.763654 
L 399.866299 -270.297518 
L 405.39974 -279.376668 
L 410.933182 -269.231573 
L 410.933182 -289.319614 
L 410.933182 -289.319614 
L 405.39974 -293.754828 
L 399.866299 -290.013807 
L 394.332857 -299.059839 
L 388.799416 -295.915742 
L 383.265974 -301.158668 
L 377.732532 -323.154872 
L 372.199091 -314.277687 
L 366.665649 -310.902667 
L 361.132208 -314.000416 
L 355.598766 -315.514547 
L 350.065325 -310.224229 
L 344.531883 -311.064638 
L 338.998442 -314.70953 
L 333.465 -312.193658 
L 327.931558 -316.14119 
L 322.398117 -312.218787 
L 316.864675 -312.959758 
L 311.331234 -314.648356 
L 305.797792 -315.820919 
L 300.264351 -313.619676 
L 294.730909 -321.523781 
L 289.197468 -285.94109 
L 283.664026 -291.40957 
L 278.130584 -292.081182 
L 272.597143 -286.276656 
L 267.063701 -289.824165 
L 261.53026 -285.803783 
L 255.996818 -293.216925 
z
" id="m9f03868e6e"/>
    </defs>
    <g clip-path="url(#p4577fcf681)">
     <use style="fill:#ff7f50;fill-opacity:0.5;" x="0" xlink:href="#m9f03868e6e" y="432"/>
    </g>
   </g>
   <g id="PolyCollection_6">
    <defs>
     <path d="M 255.996818 -285.461513 
L 255.996818 -278.472351 
L 261.53026 -285.44355 
L 267.063701 -279.147203 
L 272.597143 -288.60734 
L 278.130584 -278.959724 
L 283.664026 -280.618793 
L 289.197468 -283.554434 
L 294.730909 -296.873552 
L 300.264351 -298.622356 
L 305.797792 -295.935021 
L 311.331234 -291.485607 
L 316.864675 -300.411394 
L 322.398117 -294.07988 
L 327.931558 -292.795395 
L 333.465 -295.323689 
L 338.998442 -297.146393 
L 344.531883 -297.337624 
L 350.065325 -291.153846 
L 355.598766 -296.898392 
L 361.132208 -297.964468 
L 366.665649 -294.796535 
L 372.199091 -297.995494 
L 377.732532 -309.742481 
L 383.265974 -285.089613 
L 388.799416 -278.079667 
L 394.332857 -283.361381 
L 399.866299 -285.056482 
L 405.39974 -275.803784 
L 410.933182 -274.443109 
L 410.933182 -285.739859 
L 410.933182 -285.739859 
L 405.39974 -290.465364 
L 399.866299 -300.678077 
L 394.332857 -300.411377 
L 388.799416 -293.63479 
L 383.265974 -302.946371 
L 377.732532 -325.054472 
L 372.199091 -312.536265 
L 366.665649 -309.716181 
L 361.132208 -311.743631 
L 355.598766 -310.800259 
L 350.065325 -305.00831 
L 344.531883 -311.506946 
L 338.998442 -310.790084 
L 333.465 -309.440575 
L 327.931558 -305.894395 
L 322.398117 -307.075473 
L 316.864675 -313.234853 
L 311.331234 -304.476478 
L 305.797792 -310.961473 
L 300.264351 -311.784561 
L 294.730909 -319.917923 
L 289.197468 -290.378474 
L 283.664026 -286.815189 
L 278.130584 -284.734132 
L 272.597143 -298.02938 
L 267.063701 -284.851237 
L 261.53026 -291.383809 
L 255.996818 -285.461513 
z
" id="ma9c4cda7a2"/>
    </defs>
    <g clip-path="url(#p4577fcf681)">
     <use style="fill:#ffe4c4;fill-opacity:0.5;" x="0" xlink:href="#ma9c4cda7a2" y="432"/>
    </g>
   </g>
   <g id="matplotlib.axis_3">
    <g id="xtick_4">
     <g id="line2d_20">
      <g>
       <use style="stroke:#000000;stroke-width:0.8;" x="294.730909" xlink:href="#m4ce44d5675" y="182.32"/>
      </g>
     </g>
     <g id="text_16">
      <text style="font-family:DejaVu Sans;font-size:10px;font-style:normal;font-weight:normal;text-anchor:middle;" transform="rotate(-0, 294.730909, 196.918437)" x="294.730909" y="196.918437">0</text>
     </g>
    </g>
    <g id="xtick_5">
     <g id="line2d_21">
      <g>
       <use style="stroke:#000000;stroke-width:0.8;" x="350.065325" xlink:href="#m4ce44d5675" y="182.32"/>
      </g>
     </g>
     <g id="text_17">
      <text style="font-family:DejaVu Sans;font-size:10px;font-style:normal;font-weight:normal;text-anchor:middle;" transform="rotate(-0, 350.065325, 196.918437)" x="350.065325" y="196.918437">10</text>
     </g>
    </g>
    <g id="xtick_6">
     <g id="line2d_22">
      <g>
       <use style="stroke:#000000;stroke-width:0.8;" x="405.39974" xlink:href="#m4ce44d5675" y="182.32"/>
      </g>
     </g>
     <g id="text_18">
      <text style="font-family:DejaVu Sans;font-size:10px;font-style:normal;font-weight:normal;text-anchor:middle;" transform="rotate(-0, 405.39974, 196.918437)" x="405.39974" y="196.918437">20</text>
     </g>
    </g>
    <g id="text_19">
     <text style="font-family:DejaVu Sans;font-size:8px;font-style:normal;font-weight:normal;text-anchor:middle;" transform="rotate(-0, 333.465, 209.076875)" x="333.465" y="209.076875">Time from sound onset</text>
    </g>
   </g>
   <g id="matplotlib.axis_4">
    <g id="ytick_8">
     <g id="line2d_23">
      <g>
       <use style="stroke:#000000;stroke-width:0.8;" x="248.25" xlink:href="#ma6728f3823" y="169.867465"/>
      </g>
     </g>
    </g>
    <g id="ytick_9">
     <g id="line2d_24">
      <g>
       <use style="stroke:#000000;stroke-width:0.8;" x="248.25" xlink:href="#ma6728f3823" y="146.538777"/>
      </g>
     </g>
    </g>
    <g id="ytick_10">
     <g id="line2d_25">
      <g>
       <use style="stroke:#000000;stroke-width:0.8;" x="248.25" xlink:href="#ma6728f3823" y="123.210088"/>
      </g>
     </g>
    </g>
    <g id="ytick_11">
     <g id="line2d_26">
      <g>
       <use style="stroke:#000000;stroke-width:0.8;" x="248.25" xlink:href="#ma6728f3823" y="99.8814"/>
      </g>
     </g>
    </g>
    <g id="ytick_12">
     <g id="line2d_27">
      <g>
       <use style="stroke:#000000;stroke-width:0.8;" x="248.25" xlink:href="#ma6728f3823" y="76.552712"/>
      </g>
     </g>
    </g>
    <g id="ytick_13">
     <g id="line2d_28">
      <g>
       <use style="stroke:#000000;stroke-width:0.8;" x="248.25" xlink:href="#ma6728f3823" y="53.224024"/>
      </g>
     </g>
    </g>
    <g id="ytick_14">
     <g id="line2d_29">
      <g>
       <use style="stroke:#000000;stroke-width:0.8;" x="248.25" xlink:href="#ma6728f3823" y="29.895336"/>
      </g>
     </g>
    </g>
   </g>
   <g id="line2d_30">
    <path clip-path="url(#p4577fcf681)" d="M 255.996818 146.318255 
L 261.53026 148.495817 
L 267.063701 146.203681 
L 272.597143 146.203471 
L 278.130584 142.795864 
L 283.664026 150.615284 
L 289.197468 145.139063 
L 294.730909 113.450575 
L 300.264351 118.464588 
L 305.797792 125.628494 
L 311.331234 124.772395 
L 316.864675 121.127146 
L 322.398117 120.120161 
L 327.931558 116.587935 
L 333.465 112.573332 
L 338.998442 113.916512 
L 344.531883 107.587422 
L 350.065325 108.63338 
L 355.598766 107.762985 
L 361.132208 105.79832 
L 366.665649 106.1219 
L 372.199091 104.471139 
L 377.732532 104.614109 
L 383.265974 101.626832 
L 388.799416 95.488551 
L 394.332857 99.878887 
L 399.866299 92.870073 
L 405.39974 95.319188 
L 410.933182 92.902941 
" style="fill:none;stroke:#ff0000;stroke-linecap:square;stroke-width:2;"/>
   </g>
   <g id="line2d_31">
    <path clip-path="url(#p4577fcf681)" d="M 255.996818 143.130645 
L 261.53026 152.615108 
L 267.063701 144.56639 
L 272.597143 148.523115 
L 278.130584 143.046559 
L 283.664026 144.948385 
L 289.197468 148.941235 
L 294.730909 118.431956 
L 300.264351 126.249256 
L 305.797792 123.343628 
L 311.331234 126.100036 
L 316.864675 127.975006 
L 322.398117 126.935356 
L 327.931558 123.540953 
L 333.465 129.363254 
L 338.998442 127.662978 
L 344.531883 129.178874 
L 350.065325 131.594478 
L 355.598766 126.016578 
L 361.132208 128.364953 
L 366.665649 131.760442 
L 372.199091 127.854336 
L 377.732532 117.319377 
L 383.265974 140.949743 
L 388.799416 146.798055 
L 394.332857 142.588254 
L 399.866299 151.844338 
L 405.39974 145.434252 
L 410.933182 152.724406 
" style="fill:none;stroke:#ff0000;stroke-dasharray:7.4,3.2;stroke-dashoffset:0;stroke-width:2;"/>
   </g>
   <g id="line2d_32">
    <path clip-path="url(#p4577fcf681)" d="M 255.996818 150.033068 
L 261.53026 143.586321 
L 267.063701 150.00078 
L 272.597143 138.68164 
L 278.130584 150.153072 
L 283.664026 148.283009 
L 289.197468 145.033546 
L 294.730909 123.604262 
L 300.264351 126.796541 
L 305.797792 128.551753 
L 311.331234 134.018958 
L 316.864675 125.176877 
L 322.398117 131.422324 
L 327.931558 132.655105 
L 333.465 129.617868 
L 338.998442 128.031761 
L 344.531883 127.577715 
L 350.065325 133.918922 
L 355.598766 128.150674 
L 361.132208 127.145951 
L 366.665649 129.743642 
L 372.199091 126.73412 
L 377.732532 114.601523 
L 383.265974 137.982008 
L 388.799416 146.142772 
L 394.332857 140.113621 
L 399.866299 139.132721 
L 405.39974 148.865426 
L 410.933182 151.908516 
" style="fill:none;stroke:#ff8c00;stroke-dasharray:2,3.3;stroke-dashoffset:0;stroke-width:2;"/>
   </g>
   <g id="patch_8">
    <path d="M 248.25 182.32 
L 248.25 25.44 
" style="fill:none;stroke:#000000;stroke-linecap:square;stroke-linejoin:miter;stroke-width:0.8;"/>
   </g>
   <g id="patch_9">
    <path d="M 418.68 182.32 
L 418.68 25.44 
" style="fill:none;stroke:#000000;stroke-linecap:square;stroke-linejoin:miter;stroke-width:0.8;"/>
   </g>
   <g id="patch_10">
    <path d="M 248.25 182.32 
L 418.68 182.32 
" style="fill:none;stroke:#000000;stroke-linecap:square;stroke-linejoin:miter;stroke-width:0.8;"/>
   </g>
   <g id="patch_11">
    <path d="M 248.25 25.44 
L 418.68 25.44 
" style="fill:none;stroke:#000000;stroke-linecap:square;stroke-linejoin:miter;stroke-width:0.8;"/>
   </g>
   <g id="text_20">
    <text style="font-family:DejaVu Sans;font-size:12px;font-style:normal;font-weight:normal;text-anchor:middle;" transform="rotate(-0, 333.465, 19.44)" x="333.465" y="19.44">Target</text>
   </g>
   <g id="legend_2">
    <g id="line2d_33">
     <path d="M 310.27625 35.91875 
L 326.27625 35.91875 
" style="fill:none;stroke:#ff0000;stroke-linecap:square;stroke-width:2;"/>
    </g>
    <g id="line2d_34"/>
    <g id="text_21">
     <text style="font-family:DejaVu Sans;font-size:8px;font-style:normal;font-weight:normal;text-anchor:start;" transform="rotate(-0, 332.67625, 38.71875)" x="332.67625" y="38.71875">active</text>
    </g>
    <g id="line2d_35">
     <path d="M 310.27625 47.66125 
L 326.27625 47.66125 
" style="fill:none;stroke:#ff0000;stroke-dasharray:7.4,3.2;stroke-dashoffset:0;stroke-width:2;"/>
    </g>
    <g id="line2d_36"/>
    <g id="text_22">
     <text style="font-family:DejaVu Sans;font-size:8px;font-style:normal;font-weight:normal;text-anchor:start;" transform="rotate(-0, 332.67625, 50.46125)" x="332.67625" y="50.46125">passive, big pupil</text>
    </g>
    <g id="line2d_37">
     <path d="M 310.27625 59.40375 
L 326.27625 59.40375 
" style="fill:none;stroke:#ff8c00;stroke-dasharray:2,3.3;stroke-dashoffset:0;stroke-width:2;"/>
    </g>
    <g id="line2d_38"/>
    <g id="text_23">
     <text style="font-family:DejaVu Sans;font-size:8px;font-style:normal;font-weight:normal;text-anchor:start;" transform="rotate(-0, 332.67625, 62.20375)" x="332.67625" y="62.20375">passive, small pupil</text>
    </g>
   </g>
  </g>
  <g id="axes_3">
   <g id="patch_12">
    <path d="M 53.3 392.92 
L 223.73 392.92 
L 223.73 236.04 
L 53.3 236.04 
z
" style="fill:#ffffff;"/>
   </g>
   <g id="PolyCollection_7">
    <defs>
     <path d="M 61.046818 -76.446713 
L 61.046818 -73.478152 
L 66.58026 -73.085118 
L 72.113701 -74.639173 
L 77.647143 -72.121147 
L 83.180584 -72.491211 
L 88.714026 -72.709861 
L 94.247468 -74.383573 
L 99.780909 -136.174416 
L 105.314351 -121.324501 
L 110.847792 -118.796899 
L 116.381234 -115.258568 
L 121.914675 -115.934376 
L 127.448117 -110.622249 
L 132.981558 -106.707373 
L 138.515 -109.063367 
L 144.048442 -104.935907 
L 149.581883 -106.318156 
L 155.115325 -107.108536 
L 160.648766 -101.887784 
L 166.182208 -105.339358 
L 171.715649 -102.907218 
L 177.249091 -102.738196 
L 182.782532 -90.255418 
L 188.315974 -75.508508 
L 193.849416 -76.70858 
L 199.382857 -75.705326 
L 204.916299 -71.355017 
L 210.44974 -70.761548 
L 215.983182 -70.240453 
L 215.983182 -77.884132 
L 215.983182 -77.884132 
L 210.44974 -79.882022 
L 204.916299 -79.352592 
L 199.382857 -84.747379 
L 193.849416 -87.561288 
L 188.315974 -88.523624 
L 182.782532 -103.861901 
L 177.249091 -116.826562 
L 171.715649 -116.979042 
L 166.182208 -119.968325 
L 160.648766 -116.438082 
L 155.115325 -121.755314 
L 149.581883 -120.34545 
L 144.048442 -119.314158 
L 138.515 -122.960846 
L 132.981558 -121.006838 
L 127.448117 -124.733577 
L 121.914675 -130.305506 
L 116.381234 -128.908951 
L 110.847792 -132.751796 
L 105.314351 -136.397282 
L 99.780909 -150.481183 
L 94.247468 -77.858605 
L 88.714026 -75.352216 
L 83.180584 -75.437438 
L 77.647143 -76.243498 
L 72.113701 -78.126074 
L 66.58026 -75.684352 
L 61.046818 -76.446713 
z
" id="me789e5f684"/>
    </defs>
    <g clip-path="url(#p17da82d7a6)">
     <use style="fill:#0000ff;fill-opacity:0.5;" x="0" xlink:href="#me789e5f684" y="432"/>
    </g>
   </g>
   <g id="PolyCollection_8">
    <defs>
     <path d="M 61.046818 -83.981417 
L 61.046818 -78.343136 
L 66.58026 -71.434875 
L 72.113701 -73.575407 
L 77.647143 -71.497713 
L 83.180584 -72.915235 
L 88.714026 -67.005059 
L 94.247468 -72.413584 
L 99.780909 -129.021291 
L 105.314351 -112.583291 
L 110.847792 -113.217469 
L 116.381234 -107.69332 
L 121.914675 -110.13354 
L 127.448117 -105.066483 
L 132.981558 -100.454108 
L 138.515 -106.131084 
L 144.048442 -102.935775 
L 149.581883 -102.688983 
L 155.115325 -98.395234 
L 160.648766 -98.354939 
L 166.182208 -99.607797 
L 171.715649 -99.245484 
L 177.249091 -99.404454 
L 182.782532 -89.386789 
L 188.315974 -78.365324 
L 193.849416 -80.73626 
L 199.382857 -76.983234 
L 204.916299 -71.914786 
L 210.44974 -73.643431 
L 215.983182 -74.283674 
L 215.983182 -86.02493 
L 215.983182 -86.02493 
L 210.44974 -83.222085 
L 204.916299 -87.559922 
L 199.382857 -87.292658 
L 193.849416 -94.557925 
L 188.315974 -93.020912 
L 182.782532 -103.662147 
L 177.249091 -112.336279 
L 171.715649 -111.933057 
L 166.182208 -112.277423 
L 160.648766 -112.223315 
L 155.115325 -112.294731 
L 149.581883 -115.577606 
L 144.048442 -115.503364 
L 138.515 -119.479578 
L 132.981558 -114.404178 
L 127.448117 -117.88266 
L 121.914675 -123.15647 
L 116.381234 -119.510466 
L 110.847792 -126.560766 
L 105.314351 -127.903821 
L 99.780909 -145.442075 
L 94.247468 -77.194555 
L 88.714026 -73.439586 
L 83.180584 -76.67409 
L 77.647143 -74.892461 
L 72.113701 -78.338072 
L 66.58026 -76.351938 
L 61.046818 -83.981417 
z
" id="m55c5824237"/>
    </defs>
    <g clip-path="url(#p17da82d7a6)">
     <use style="fill:#add8e6;fill-opacity:0.5;" x="0" xlink:href="#m55c5824237" y="432"/>
    </g>
   </g>
   <g id="PolyCollection_9">
    <defs>
     <path d="M 61.046818 -75.082007 
L 61.046818 -67.345091 
L 66.58026 -69.834306 
L 72.113701 -75.664047 
L 77.647143 -73.412946 
L 83.180584 -68.383479 
L 88.714026 -73.710944 
L 94.247468 -73.479652 
L 99.780909 -119.309491 
L 105.314351 -107.186028 
L 110.847792 -102.249838 
L 116.381234 -101.842646 
L 121.914675 -93.490001 
L 127.448117 -93.362299 
L 132.981558 -88.044105 
L 138.515 -102.474715 
L 144.048442 -94.971083 
L 149.581883 -91.121848 
L 155.115325 -99.621656 
L 160.648766 -89.301785 
L 166.182208 -100.081384 
L 171.715649 -98.535077 
L 177.249091 -97.596924 
L 182.782532 -88.853885 
L 188.315974 -77.476838 
L 193.849416 -78.4275 
L 199.382857 -74.167531 
L 204.916299 -81.474952 
L 210.44974 -78.76567 
L 215.983182 -80.037062 
L 215.983182 -89.260494 
L 215.983182 -89.260494 
L 210.44974 -91.340505 
L 204.916299 -95.084799 
L 199.382857 -82.676663 
L 193.849416 -92.99766 
L 188.315974 -109.98515 
L 182.782532 -104.812686 
L 177.249091 -108.738723 
L 171.715649 -113.139036 
L 166.182208 -114.009077 
L 160.648766 -102.118411 
L 155.115325 -110.190036 
L 149.581883 -103.930318 
L 144.048442 -104.909176 
L 138.515 -116.925369 
L 132.981558 -100.49726 
L 127.448117 -103.808729 
L 121.914675 -107.176509 
L 116.381234 -114.092633 
L 110.847792 -112.525765 
L 105.314351 -121.943896 
L 99.780909 -134.254836 
L 94.247468 -76.409127 
L 88.714026 -77.785982 
L 83.180584 -76.593913 
L 77.647143 -79.776368 
L 72.113701 -82.363804 
L 66.58026 -78.215463 
L 61.046818 -75.082007 
z
" id="mcc117e4a05"/>
    </defs>
    <g clip-path="url(#p17da82d7a6)">
     <use style="fill:#da70d6;fill-opacity:0.5;" x="0" xlink:href="#mcc117e4a05" y="432"/>
    </g>
   </g>
   <g id="matplotlib.axis_5">
    <g id="xtick_7">
     <g id="line2d_39">
      <g>
       <use style="stroke:#000000;stroke-width:0.8;" x="99.780909" xlink:href="#m4ce44d5675" y="392.92"/>
      </g>
     </g>
     <g id="text_24">
      <text style="font-family:DejaVu Sans;font-size:10px;font-style:normal;font-weight:normal;text-anchor:middle;" transform="rotate(-0, 99.780909, 407.518437)" x="99.780909" y="407.518437">0</text>
     </g>
    </g>
    <g id="xtick_8">
     <g id="line2d_40">
      <g>
       <use style="stroke:#000000;stroke-width:0.8;" x="155.115325" xlink:href="#m4ce44d5675" y="392.92"/>
      </g>
     </g>
     <g id="text_25">
      <text style="font-family:DejaVu Sans;font-size:10px;font-style:normal;font-weight:normal;text-anchor:middle;" transform="rotate(-0, 155.115325, 407.518437)" x="155.115325" y="407.518437">10</text>
     </g>
    </g>
    <g id="xtick_9">
     <g id="line2d_41">
      <g>
       <use style="stroke:#000000;stroke-width:0.8;" x="210.44974" xlink:href="#m4ce44d5675" y="392.92"/>
      </g>
     </g>
     <g id="text_26">
      <text style="font-family:DejaVu Sans;font-size:10px;font-style:normal;font-weight:normal;text-anchor:middle;" transform="rotate(-0, 210.44974, 407.518437)" x="210.44974" y="407.518437">20</text>
     </g>
    </g>
    <g id="text_27">
     <text style="font-family:DejaVu Sans;font-size:8px;font-style:normal;font-weight:normal;text-anchor:middle;" transform="rotate(-0, 138.515, 419.676875)" x="138.515" y="419.676875">Time from sound onset</text>
    </g>
   </g>
   <g id="matplotlib.axis_6">
    <g id="ytick_15">
     <g id="line2d_42">
      <g>
       <use style="stroke:#000000;stroke-width:0.8;" x="53.3" xlink:href="#ma6728f3823" y="380.467465"/>
      </g>
     </g>
     <g id="text_28">
      <text style="font-family:DejaVu Sans;font-size:10px;font-style:normal;font-weight:normal;text-anchor:end;" transform="rotate(-0, 46.3, 384.266683)" x="46.3" y="384.266683">−0.2</text>
     </g>
    </g>
    <g id="ytick_16">
     <g id="line2d_43">
      <g>
       <use style="stroke:#000000;stroke-width:0.8;" x="53.3" xlink:href="#ma6728f3823" y="357.138777"/>
      </g>
     </g>
     <g id="text_29">
      <text style="font-family:DejaVu Sans;font-size:10px;font-style:normal;font-weight:normal;text-anchor:end;" transform="rotate(-0, 46.3, 360.937995)" x="46.3" y="360.937995">0.0</text>
     </g>
    </g>
    <g id="ytick_17">
     <g id="line2d_44">
      <g>
       <use style="stroke:#000000;stroke-width:0.8;" x="53.3" xlink:href="#ma6728f3823" y="333.810088"/>
      </g>
     </g>
     <g id="text_30">
      <text style="font-family:DejaVu Sans;font-size:10px;font-style:normal;font-weight:normal;text-anchor:end;" transform="rotate(-0, 46.3, 337.609307)" x="46.3" y="337.609307">0.2</text>
     </g>
    </g>
    <g id="ytick_18">
     <g id="line2d_45">
      <g>
       <use style="stroke:#000000;stroke-width:0.8;" x="53.3" xlink:href="#ma6728f3823" y="310.4814"/>
      </g>
     </g>
     <g id="text_31">
      <text style="font-family:DejaVu Sans;font-size:10px;font-style:normal;font-weight:normal;text-anchor:end;" transform="rotate(-0, 46.3, 314.280619)" x="46.3" y="314.280619">0.4</text>
     </g>
    </g>
    <g id="ytick_19">
     <g id="line2d_46">
      <g>
       <use style="stroke:#000000;stroke-width:0.8;" x="53.3" xlink:href="#ma6728f3823" y="287.152712"/>
      </g>
     </g>
     <g id="text_32">
      <text style="font-family:DejaVu Sans;font-size:10px;font-style:normal;font-weight:normal;text-anchor:end;" transform="rotate(-0, 46.3, 290.951931)" x="46.3" y="290.951931">0.6</text>
     </g>
    </g>
    <g id="ytick_20">
     <g id="line2d_47">
      <g>
       <use style="stroke:#000000;stroke-width:0.8;" x="53.3" xlink:href="#ma6728f3823" y="263.824024"/>
      </g>
     </g>
     <g id="text_33">
      <text style="font-family:DejaVu Sans;font-size:10px;font-style:normal;font-weight:normal;text-anchor:end;" transform="rotate(-0, 46.3, 267.623242)" x="46.3" y="267.623242">0.8</text>
     </g>
    </g>
    <g id="ytick_21">
     <g id="line2d_48">
      <g>
       <use style="stroke:#000000;stroke-width:0.8;" x="53.3" xlink:href="#ma6728f3823" y="240.495336"/>
      </g>
     </g>
     <g id="text_34">
      <text style="font-family:DejaVu Sans;font-size:10px;font-style:normal;font-weight:normal;text-anchor:end;" transform="rotate(-0, 46.3, 244.294554)" x="46.3" y="244.294554">1.0</text>
     </g>
    </g>
    <g id="text_35">
     <text style="font-family:DejaVu Sans;font-size:8px;font-style:normal;font-weight:normal;text-anchor:middle;" transform="rotate(-90, 16.353438, 314.48)" x="16.353438" y="314.48">Normalized response</text>
    </g>
   </g>
   <g id="line2d_49">
    <path clip-path="url(#p17da82d7a6)" d="M 61.046818 357.037568 
L 66.58026 357.615265 
L 72.113701 355.617376 
L 77.647143 357.817678 
L 83.180584 358.035676 
L 88.714026 357.968962 
L 94.247468 355.878911 
L 99.780909 288.6722 
L 105.314351 303.139109 
L 110.847792 306.225652 
L 116.381234 309.91624 
L 121.914675 308.880059 
L 127.448117 314.322087 
L 132.981558 318.142894 
L 138.515 315.987893 
L 144.048442 319.874967 
L 149.581883 318.668197 
L 155.115325 317.568075 
L 160.648766 322.837067 
L 166.182208 319.346159 
L 171.715649 322.05687 
L 177.249091 322.217621 
L 182.782532 334.94134 
L 188.315974 349.983934 
L 193.849416 349.865066 
L 199.382857 351.773648 
L 204.916299 356.646196 
L 210.44974 356.678215 
L 215.983182 357.937708 
" style="fill:none;stroke:#0000ff;stroke-linecap:square;stroke-width:2;"/>
   </g>
   <g id="line2d_50">
    <path clip-path="url(#p17da82d7a6)" d="M 61.046818 350.837723 
L 66.58026 358.106593 
L 72.113701 356.04326 
L 77.647143 358.804913 
L 83.180584 357.205337 
L 88.714026 361.777678 
L 94.247468 357.19593 
L 99.780909 294.768317 
L 105.314351 311.756444 
L 110.847792 312.110882 
L 116.381234 318.398107 
L 121.914675 315.354995 
L 127.448117 320.525428 
L 132.981558 324.570857 
L 138.515 319.194669 
L 144.048442 322.78043 
L 149.581883 322.866705 
L 155.115325 326.655017 
L 160.648766 326.710873 
L 166.182208 326.05739 
L 171.715649 326.410729 
L 177.249091 326.129633 
L 182.782532 335.475532 
L 188.315974 346.306882 
L 193.849416 344.352907 
L 199.382857 349.862054 
L 204.916299 352.262646 
L 210.44974 353.567242 
L 215.983182 351.845698 
" style="fill:none;stroke:#0000ff;stroke-dasharray:7.4,3.2;stroke-dashoffset:0;stroke-width:2;"/>
   </g>
   <g id="line2d_51">
    <path clip-path="url(#p17da82d7a6)" d="M 61.046818 360.786451 
L 66.58026 357.975115 
L 72.113701 352.986074 
L 77.647143 355.405343 
L 83.180584 359.511304 
L 88.714026 356.251537 
L 94.247468 357.055611 
L 99.780909 305.217836 
L 105.314351 317.435038 
L 110.847792 324.612198 
L 116.381234 324.032361 
L 121.914675 331.666745 
L 127.448117 333.414486 
L 132.981558 337.729318 
L 138.515 322.299958 
L 144.048442 332.05987 
L 149.581883 334.473917 
L 155.115325 327.094154 
L 160.648766 336.289902 
L 166.182208 324.95477 
L 171.715649 326.162943 
L 177.249091 328.832176 
L 182.782532 335.166715 
L 188.315974 338.269006 
L 193.849416 346.28742 
L 199.382857 353.577903 
L 204.916299 343.720124 
L 210.44974 346.946913 
L 215.983182 347.351222 
" style="fill:none;stroke:#800080;stroke-dasharray:2,3.3;stroke-dashoffset:0;stroke-width:2;"/>
   </g>
   <g id="patch_13">
    <path d="M 53.3 392.92 
L 53.3 236.04 
" style="fill:none;stroke:#000000;stroke-linecap:square;stroke-linejoin:miter;stroke-width:0.8;"/>
   </g>
   <g id="patch_14">
    <path d="M 223.73 392.92 
L 223.73 236.04 
" style="fill:none;stroke:#000000;stroke-linecap:square;stroke-linejoin:miter;stroke-width:0.8;"/>
   </g>
   <g id="patch_15">
    <path d="M 53.3 392.92 
L 223.73 392.92 
" style="fill:none;stroke:#000000;stroke-linecap:square;stroke-linejoin:miter;stroke-width:0.8;"/>
   </g>
   <g id="patch_16">
    <path d="M 53.3 236.04 
L 223.73 236.04 
" style="fill:none;stroke:#000000;stroke-linecap:square;stroke-linejoin:miter;stroke-width:0.8;"/>
   </g>
   <g id="text_36">
    <text style="font-family:DejaVu Sans;font-size:12px;font-style:normal;font-weight:normal;text-anchor:middle;" transform="rotate(-0, 138.515, 230.04)" x="138.515" y="230.04">Reference</text>
   </g>
   <g id="legend_3">
    <g id="line2d_52">
     <path d="M 115.32625 246.51875 
L 131.32625 246.51875 
" style="fill:none;stroke:#0000ff;stroke-linecap:square;stroke-width:2;"/>
    </g>
    <g id="line2d_53"/>
    <g id="text_37">
     <text style="font-family:DejaVu Sans;font-size:8px;font-style:normal;font-weight:normal;text-anchor:start;" transform="rotate(-0, 137.72625, 249.31875)" x="137.72625" y="249.31875">active</text>
    </g>
    <g id="line2d_54">
     <path d="M 115.32625 258.26125 
L 131.32625 258.26125 
" style="fill:none;stroke:#0000ff;stroke-dasharray:7.4,3.2;stroke-dashoffset:0;stroke-width:2;"/>
    </g>
    <g id="line2d_55"/>
    <g id="text_38">
     <text style="font-family:DejaVu Sans;font-size:8px;font-style:normal;font-weight:normal;text-anchor:start;" transform="rotate(-0, 137.72625, 261.06125)" x="137.72625" y="261.06125">passive, big pupil</text>
    </g>
    <g id="line2d_56">
     <path d="M 115.32625 270.00375 
L 131.32625 270.00375 
" style="fill:none;stroke:#800080;stroke-dasharray:2,3.3;stroke-dashoffset:0;stroke-width:2;"/>
    </g>
    <g id="line2d_57"/>
    <g id="text_39">
     <text style="font-family:DejaVu Sans;font-size:8px;font-style:normal;font-weight:normal;text-anchor:start;" transform="rotate(-0, 137.72625, 272.80375)" x="137.72625" y="272.80375">passive, small pupil</text>
    </g>
   </g>
  </g>
  <g id="axes_4">
   <g id="patch_17">
    <path d="M 248.25 392.92 
L 418.68 392.92 
L 418.68 236.04 
L 248.25 236.04 
z
" style="fill:#ffffff;"/>
   </g>
   <g id="PolyCollection_10">
    <defs>
     <path d="M 255.996818 -77.1744 
L 255.996818 -73.969142 
L 261.53026 -71.183173 
L 267.063701 -77.486097 
L 272.597143 -71.683345 
L 278.130584 -72.559403 
L 283.664026 -73.505715 
L 289.197468 -71.216006 
L 294.730909 -117.679247 
L 300.264351 -110.159356 
L 305.797792 -107.208602 
L 311.331234 -107.657407 
L 316.864675 -108.184305 
L 322.398117 -103.308326 
L 327.931558 -106.279512 
L 333.465 -107.762739 
L 338.998442 -103.740182 
L 344.531883 -104.803831 
L 350.065325 -105.006063 
L 355.598766 -106.358938 
L 361.132208 -102.76979 
L 366.665649 -104.621478 
L 372.199091 -105.261649 
L 377.732532 -112.679631 
L 383.265974 -90.147943 
L 388.799416 -86.979155 
L 394.332857 -86.32816 
L 399.866299 -79.413753 
L 405.39974 -76.898025 
L 410.933182 -75.362037 
L 410.933182 -81.845012 
L 410.933182 -81.845012 
L 405.39974 -83.821434 
L 399.866299 -86.796471 
L 394.332857 -94.345187 
L 388.799416 -96.515689 
L 383.265974 -101.859152 
L 377.732532 -124.272675 
L 372.199091 -116.595809 
L 366.665649 -116.393868 
L 361.132208 -114.644097 
L 355.598766 -118.086007 
L 350.065325 -116.945127 
L 344.531883 -116.37856 
L 338.998442 -115.573394 
L 333.465 -119.211384 
L 327.931558 -117.932313 
L 322.398117 -115.182577 
L 316.864675 -119.239534 
L 311.331234 -118.469128 
L 305.797792 -118.376491 
L 300.264351 -122.012007 
L 294.730909 -128.322556 
L 289.197468 -75.035819 
L 283.664026 -77.04893 
L 278.130584 -75.963527 
L 272.597143 -75.417914 
L 267.063701 -80.609404 
L 261.53026 -75.204254 
L 255.996818 -77.1744 
z
" id="m05bdc71056"/>
    </defs>
    <g clip-path="url(#p83c27b6f28)">
     <use style="fill:#0000ff;fill-opacity:0.5;" x="0" xlink:href="#m05bdc71056" y="432"/>
    </g>
   </g>
   <g id="PolyCollection_11">
    <defs>
     <path d="M 255.996818 -82.042467 
L 255.996818 -72.943839 
L 261.53026 -72.314042 
L 267.063701 -70.930562 
L 272.597143 -73.774369 
L 278.130584 -75.266682 
L 283.664026 -71.217206 
L 289.197468 -64.617366 
L 294.730909 -108.049769 
L 300.264351 -111.001632 
L 305.797792 -103.722262 
L 311.331234 -100.783299 
L 316.864675 -102.004956 
L 322.398117 -103.739764 
L 327.931558 -107.787879 
L 333.465 -105.986777 
L 338.998442 -104.653299 
L 344.531883 -101.399243 
L 350.065325 -101.870276 
L 355.598766 -102.404031 
L 361.132208 -100.417187 
L 366.665649 -105.138428 
L 372.199091 -109.700648 
L 377.732532 -115.051098 
L 383.265974 -91.587602 
L 388.799416 -85.667274 
L 394.332857 -81.676977 
L 399.866299 -72.955122 
L 405.39974 -75.210083 
L 410.933182 -77.447973 
L 410.933182 -87.157638 
L 410.933182 -87.157638 
L 405.39974 -85.273629 
L 399.866299 -87.758246 
L 394.332857 -91.315284 
L 388.799416 -98.562948 
L 383.265974 -106.443645 
L 377.732532 -127.044907 
L 372.199091 -121.970545 
L 366.665649 -118.27879 
L 361.132208 -114.177103 
L 355.598766 -115.825299 
L 350.065325 -116.234297 
L 344.531883 -116.212295 
L 338.998442 -116.624552 
L 333.465 -118.673046 
L 327.931558 -120.93823 
L 322.398117 -116.09373 
L 316.864675 -115.430004 
L 311.331234 -113.753872 
L 305.797792 -117.773657 
L 300.264351 -124.168795 
L 294.730909 -121.033932 
L 289.197468 -72.543137 
L 283.664026 -75.984481 
L 278.130584 -81.218256 
L 272.597143 -78.533917 
L 267.063701 -77.090895 
L 261.53026 -79.57991 
L 255.996818 -82.042467 
z
" id="m1abc6f528a"/>
    </defs>
    <g clip-path="url(#p83c27b6f28)">
     <use style="fill:#add8e6;fill-opacity:0.5;" x="0" xlink:href="#m1abc6f528a" y="432"/>
    </g>
   </g>
   <g id="PolyCollection_12">
    <defs>
     <path d="M 255.996818 -79.977087 
L 255.996818 -73.663371 
L 261.53026 -67.295488 
L 267.063701 -73.291063 
L 272.597143 -68.029216 
L 278.130584 -68.143621 
L 283.664026 -75.713717 
L 289.197468 -72.44987 
L 294.730909 -99.570646 
L 300.264351 -97.179014 
L 305.797792 -99.231536 
L 311.331234 -94.473261 
L 316.864675 -94.097324 
L 322.398117 -91.30824 
L 327.931558 -94.334052 
L 333.465 -89.160587 
L 338.998442 -91.007672 
L 344.531883 -92.637402 
L 350.065325 -97.803939 
L 355.598766 -89.388117 
L 361.132208 -95.150138 
L 366.665649 -95.555475 
L 372.199091 -93.067221 
L 377.732532 -97.773843 
L 383.265974 -80.992511 
L 388.799416 -79.010238 
L 394.332857 -68.082911 
L 399.866299 -78.085729 
L 405.39974 -68.710167 
L 410.933182 -77.890669 
L 410.933182 -89.877358 
L 410.933182 -89.877358 
L 405.39974 -80.790841 
L 399.866299 -90.66911 
L 394.332857 -86.066851 
L 388.799416 -94.678787 
L 383.265974 -98.755974 
L 377.732532 -111.773892 
L 372.199091 -106.293624 
L 366.665649 -108.209441 
L 361.132208 -107.217192 
L 355.598766 -102.344713 
L 350.065325 -109.915801 
L 344.531883 -105.342014 
L 338.998442 -104.255859 
L 333.465 -101.73622 
L 327.931558 -106.551245 
L 322.398117 -103.826675 
L 316.864675 -105.812787 
L 311.331234 -106.965118 
L 305.797792 -110.851122 
L 300.264351 -110.507027 
L 294.730909 -113.285986 
L 289.197468 -77.971552 
L 283.664026 -81.680493 
L 278.130584 -73.695052 
L 272.597143 -74.772019 
L 267.063701 -81.518187 
L 261.53026 -79.856394 
L 255.996818 -79.977087 
z
" id="m462f2f95d1"/>
    </defs>
    <g clip-path="url(#p83c27b6f28)">
     <use style="fill:#da70d6;fill-opacity:0.5;" x="0" xlink:href="#m462f2f95d1" y="432"/>
    </g>
   </g>
   <g id="matplotlib.axis_7">
    <g id="xtick_10">
     <g id="line2d_58">
      <g>
       <use style="stroke:#000000;stroke-width:0.8;" x="294.730909" xlink:href="#m4ce44d5675" y="392.92"/>
      </g>
     </g>
     <g id="text_40">
      <text style="font-family:DejaVu Sans;font-size:10px;font-style:normal;font-weight:normal;text-anchor:middle;" transform="rotate(-0, 294.730909, 407.518437)" x="294.730909" y="407.518437">0</text>
     </g>
    </g>
    <g id="xtick_11">
     <g id="line2d_59">
      <g>
       <use style="stroke:#000000;stroke-width:0.8;" x="350.065325" xlink:href="#m4ce44d5675" y="392.92"/>
      </g>
     </g>
     <g id="text_41">
      <text style="font-family:DejaVu Sans;font-size:10px;font-style:normal;font-weight:normal;text-anchor:middle;" transform="rotate(-0, 350.065325, 407.518437)" x="350.065325" y="407.518437">10</text>
     </g>
    </g>
    <g id="xtick_12">
     <g id="line2d_60">
      <g>
       <use style="stroke:#000000;stroke-width:0.8;" x="405.39974" xlink:href="#m4ce44d5675" y="392.92"/>
      </g>
     </g>
     <g id="text_42">
      <text style="font-family:DejaVu Sans;font-size:10px;font-style:normal;font-weight:normal;text-anchor:middle;" transform="rotate(-0, 405.39974, 407.518437)" x="405.39974" y="407.518437">20</text>
     </g>
    </g>
    <g id="text_43">
     <text style="font-family:DejaVu Sans;font-size:8px;font-style:normal;font-weight:normal;text-anchor:middle;" transform="rotate(-0, 333.465, 419.676875)" x="333.465" y="419.676875">Time from sound onset</text>
    </g>
   </g>
   <g id="matplotlib.axis_8">
    <g id="ytick_22">
     <g id="line2d_61">
      <g>
       <use style="stroke:#000000;stroke-width:0.8;" x="248.25" xlink:href="#ma6728f3823" y="380.467465"/>
      </g>
     </g>
    </g>
    <g id="ytick_23">
     <g id="line2d_62">
      <g>
       <use style="stroke:#000000;stroke-width:0.8;" x="248.25" xlink:href="#ma6728f3823" y="357.138777"/>
      </g>
     </g>
    </g>
    <g id="ytick_24">
     <g id="line2d_63">
      <g>
       <use style="stroke:#000000;stroke-width:0.8;" x="248.25" xlink:href="#ma6728f3823" y="333.810088"/>
      </g>
     </g>
    </g>
    <g id="ytick_25">
     <g id="line2d_64">
      <g>
       <use style="stroke:#000000;stroke-width:0.8;" x="248.25" xlink:href="#ma6728f3823" y="310.4814"/>
      </g>
     </g>
    </g>
    <g id="ytick_26">
     <g id="line2d_65">
      <g>
       <use style="stroke:#000000;stroke-width:0.8;" x="248.25" xlink:href="#ma6728f3823" y="287.152712"/>
      </g>
     </g>
    </g>
    <g id="ytick_27">
     <g id="line2d_66">
      <g>
       <use style="stroke:#000000;stroke-width:0.8;" x="248.25" xlink:href="#ma6728f3823" y="263.824024"/>
      </g>
     </g>
    </g>
    <g id="ytick_28">
     <g id="line2d_67">
      <g>
       <use style="stroke:#000000;stroke-width:0.8;" x="248.25" xlink:href="#ma6728f3823" y="240.495336"/>
      </g>
     </g>
    </g>
    <g id="text_44">
     <text style="font-family:DejaVu Sans;font-size:8px;font-style:normal;font-weight:normal;text-anchor:middle;" transform="rotate(-90, 242.58625, 314.48)" x="242.58625" y="314.48">Normalized response</text>
    </g>
   </g>
   <g id="line2d_68">
    <path clip-path="url(#p83c27b6f28)" d="M 255.996818 356.428229 
L 261.53026 358.806286 
L 267.063701 352.95225 
L 272.597143 358.44937 
L 278.130584 357.738535 
L 283.664026 356.722677 
L 289.197468 358.874088 
L 294.730909 308.999098 
L 300.264351 315.914319 
L 305.797792 319.207454 
L 311.331234 318.936732 
L 316.864675 318.28808 
L 322.398117 322.754549 
L 327.931558 319.894087 
L 333.465 318.512939 
L 338.998442 322.343212 
L 344.531883 321.408804 
L 350.065325 321.024405 
L 355.598766 319.777527 
L 361.132208 323.293057 
L 366.665649 321.492327 
L 372.199091 321.071271 
L 377.732532 313.523847 
L 383.265974 335.996452 
L 388.799416 340.252578 
L 394.332857 341.663327 
L 399.866299 348.894888 
L 405.39974 351.64027 
L 410.933182 353.396476 
" style="fill:none;stroke:#0000ff;stroke-linecap:square;stroke-width:2;"/>
   </g>
   <g id="line2d_69">
    <path clip-path="url(#p83c27b6f28)" d="M 255.996818 354.506847 
L 261.53026 356.053024 
L 267.063701 357.989271 
L 272.597143 355.845857 
L 278.130584 353.757531 
L 283.664026 358.399157 
L 289.197468 363.419748 
L 294.730909 317.45815 
L 300.264351 314.414787 
L 305.797792 321.252041 
L 311.331234 324.731415 
L 316.864675 323.28252 
L 322.398117 322.083253 
L 327.931558 317.636945 
L 333.465 319.670089 
L 338.998442 321.361075 
L 344.531883 323.194231 
L 350.065325 322.947714 
L 355.598766 322.885335 
L 361.132208 324.702855 
L 366.665649 320.291391 
L 372.199091 316.164403 
L 377.732532 310.951998 
L 383.265974 332.984376 
L 388.799416 339.884889 
L 394.332857 345.503869 
L 399.866299 351.643316 
L 405.39974 351.758144 
L 410.933182 349.697195 
" style="fill:none;stroke:#0000ff;stroke-dasharray:7.4,3.2;stroke-dashoffset:0;stroke-width:2;"/>
   </g>
   <g id="line2d_70">
    <path clip-path="url(#p83c27b6f28)" d="M 255.996818 355.179771 
L 261.53026 358.424059 
L 267.063701 354.595375 
L 272.597143 360.599383 
L 278.130584 361.080663 
L 283.664026 353.302895 
L 289.197468 356.789289 
L 294.730909 325.571684 
L 300.264351 328.15698 
L 305.797792 326.958671 
L 311.331234 331.28081 
L 316.864675 332.044944 
L 322.398117 334.432543 
L 327.931558 331.557351 
L 333.465 336.551597 
L 338.998442 334.368235 
L 344.531883 333.010292 
L 350.065325 328.14013 
L 355.598766 336.133585 
L 361.132208 330.816335 
L 366.665649 330.117542 
L 372.199091 332.319577 
L 377.732532 327.226133 
L 383.265974 342.125757 
L 388.799416 345.155488 
L 394.332857 354.925119 
L 399.866299 347.62258 
L 405.39974 357.249496 
L 410.933182 348.115986 
" style="fill:none;stroke:#800080;stroke-dasharray:2,3.3;stroke-dashoffset:0;stroke-width:2;"/>
   </g>
   <g id="patch_18">
    <path d="M 248.25 392.92 
L 248.25 236.04 
" style="fill:none;stroke:#000000;stroke-linecap:square;stroke-linejoin:miter;stroke-width:0.8;"/>
   </g>
   <g id="patch_19">
    <path d="M 418.68 392.92 
L 418.68 236.04 
" style="fill:none;stroke:#000000;stroke-linecap:square;stroke-linejoin:miter;stroke-width:0.8;"/>
   </g>
   <g id="patch_20">
    <path d="M 248.25 392.92 
L 418.68 392.92 
" style="fill:none;stroke:#000000;stroke-linecap:square;stroke-linejoin:miter;stroke-width:0.8;"/>
   </g>
   <g id="patch_21">
    <path d="M 248.25 236.04 
L 418.68 236.04 
" style="fill:none;stroke:#000000;stroke-linecap:square;stroke-linejoin:miter;stroke-width:0.8;"/>
   </g>
   <g id="text_45">
    <text style="font-family:DejaVu Sans;font-size:12px;font-style:normal;font-weight:normal;text-anchor:middle;" transform="rotate(-0, 333.465, 230.04)" x="333.465" y="230.04">Reference</text>
   </g>
   <g id="legend_4">
    <g id="line2d_71">
     <path d="M 310.27625 246.51875 
L 326.27625 246.51875 
" style="fill:none;stroke:#0000ff;stroke-linecap:square;stroke-width:2;"/>
    </g>
    <g id="line2d_72"/>
    <g id="text_46">
     <text style="font-family:DejaVu Sans;font-size:8px;font-style:normal;font-weight:normal;text-anchor:start;" transform="rotate(-0, 332.67625, 249.31875)" x="332.67625" y="249.31875">active</text>
    </g>
    <g id="line2d_73">
     <path d="M 310.27625 258.26125 
L 326.27625 258.26125 
" style="fill:none;stroke:#0000ff;stroke-dasharray:7.4,3.2;stroke-dashoffset:0;stroke-width:2;"/>
    </g>
    <g id="line2d_74"/>
    <g id="text_47">
     <text style="font-family:DejaVu Sans;font-size:8px;font-style:normal;font-weight:normal;text-anchor:start;" transform="rotate(-0, 332.67625, 261.06125)" x="332.67625" y="261.06125">passive, big pupil</text>
    </g>
    <g id="line2d_75">
     <path d="M 310.27625 270.00375 
L 326.27625 270.00375 
" style="fill:none;stroke:#800080;stroke-dasharray:2,3.3;stroke-dashoffset:0;stroke-width:2;"/>
    </g>
    <g id="line2d_76"/>
    <g id="text_48">
     <text style="font-family:DejaVu Sans;font-size:8px;font-style:normal;font-weight:normal;text-anchor:start;" transform="rotate(-0, 332.67625, 272.80375)" x="332.67625" y="272.80375">passive, small pupil</text>
    </g>
   </g>
  </g>
 </g>
 <defs>
  <clipPath id="pc9cc9442fd">
   <rect height="156.88" width="170.43" x="53.3" y="25.44"/>
  </clipPath>
  <clipPath id="p4577fcf681">
   <rect height="156.88" width="170.43" x="248.25" y="25.44"/>
  </clipPath>
  <clipPath id="p17da82d7a6">
   <rect height="156.88" width="170.43" x="53.3" y="236.04"/>
  </clipPath>
  <clipPath id="p83c27b6f28">
   <rect height="156.88" width="170.43" x="248.25" y="236.04"/>
  </clipPath>
 </defs>
</svg>
